<svg id="Layer_2" enable-background="new 0 0 64 64" height="512" viewBox="0 0 64 64" width="512" xmlns="http://www.w3.org/2000/svg"><path d="m53.623 16.328c-1.696-8.18-8.941-14.328-17.623-14.328-5.87 0-11.068 2.823-14.354 7.171-.531-.111-1.082-.171-1.646-.171-3.392 0-6.285 2.115-7.448 5.096-5.943.716-10.552 5.768-10.552 11.904 0 6.627 5.373 12 12 12h37c6.075 0 11-4.925 11-11 0-5.169-3.571-9.494-8.377-10.672z" fill="#edeff1"/><g fill="#80d6fb"><path d="m20 45h-2.586l1.293-1.293-1.414-1.414-1.293 1.293v-3.586h-2v3.586l-1.293-1.293-1.414 1.414 1.293 1.293h-2.586v2h2.586l-1.293 1.293 1.414 1.414 1.293-1.293v3.586h2v-3.586l1.293 1.293 1.414-1.414-1.293-1.293h2.586z"/><path d="m37 45h-2.586l1.293-1.293-1.414-1.414-1.293 1.293v-3.586h-2v3.586l-1.293-1.293-1.414 1.414 1.293 1.293h-2.586v2h2.586l-1.293 1.293 1.414 1.414 1.293-1.293v3.586h2v-3.586l1.293 1.293 1.414-1.414-1.293-1.293h2.586z"/><path d="m54 45h-2.586l1.293-1.293-1.414-1.414-1.293 1.293v-3.586h-2v3.586l-1.293-1.293-1.414 1.414 1.293 1.293h-2.586v2h2.586l-1.293 1.293 1.414 1.414 1.293-1.293v3.586h2v-3.586l1.293 1.293 1.414-1.414-1.293-1.293h2.586z"/><path d="m46 55h-2.586l1.293-1.293-1.414-1.414-1.293 1.293v-3.586h-2v3.586l-1.293-1.293-1.414 1.414 1.293 1.293h-2.586v2h2.586l-1.293 1.293 1.414 1.414 1.293-1.293v3.586h2v-3.586l1.293 1.293 1.414-1.414-1.293-1.293h2.586z"/><path d="m28 55h-2.586l1.293-1.293-1.414-1.414-1.293 1.293v-3.586h-2v3.586l-1.293-1.293-1.414 1.414 1.293 1.293h-2.586v2h2.586l-1.293 1.293 1.414 1.414 1.293-1.293v3.586h2v-3.586l1.293 1.293 1.414-1.414-1.293-1.293h2.586z"/></g></svg>